:SAMPLES-PER-SECOND 30
:FULLY-SPECIFIED
:DEGREES
1285
root  38.7815 38.2807 13.3361 -168.387 59.5838 179.485
RightUpLeg  -38.9362 -9.18295 -3.4139
RightLeg  27.2763 -4.25879 -2.64166
RightFoot  2.12512 -0.464876 4.01911
RightToes  0.000482159 0.542163 -0.142577
Spine  59.6899 -5.97546 15.0555
Spine1  10.2808 7.9142 -13.4997
HEad  -20.8069 -11.3695 -3.47915
LeftShoulder1  10.8363 -17.0118 -46.0602
LeftArm  -1.97051 10.6731 -23.0204
LeftForeArm  33.9916 -46.7632 -9.46306
LeftHand  -0.25398 0.0180481 5.50724
RightShoulder  4.41987 11.4293 23.3953
RightArm  -18.4686 45.5338 21.8445
RightForeArm  1.04601 4.91044 6.96198
RightHand  -9.1038 21.6382 -38.0683
LeftUpLeg  -36.3197 15.3252 -13.6449
LeftLeg  14.4625 5.0507 -2.34979
LeftFoot  6.59513 -2.48578 15.3968
LeftToes  1.06246e-005 4.65854e-005 -8.18502e-006
1286
root  38.1641 38.3788 13.0034 -169.476 61.2665 -178.591
RightUpLeg  -36.0428 -8.56504 -2.16801
RightLeg  33.8278 -7.61008 -5.72748
RightFoot  -0.684375 -0.253646 2.64928
RightToes  0.000482159 0.542163 -0.142577
Spine  58.1783 -5.52287 14.7658
Spine1  10.0371 7.52132 -12.9626
HEad  -18.1678 -8.38858 -5.512
LeftShoulder1  10.743 -16.8284 -46.0769
LeftArm  -3.12875 11.4622 -22.7117
LeftForeArm  33.0721 -45.7567 -9.15876
LeftHand  -0.25398 0.0180481 5.50724
RightShoulder  4.77312 11.5583 25.5916
RightArm  -16.0199 42.0241 24.076
RightForeArm  -1.22651 5.28963 7.42694
RightHand  -8.55127 20.6842 -37.1575
LeftUpLeg  -32.6761 14.5588 -11.1378
LeftLeg  12.6653 8.49217 -2.94362
LeftFoot  7.08224 -2.62316 15.7995
LeftToes  1.06246e-005 4.65854e-005 -8.18502e-006
1287
root  37.576 38.4589 12.6864 -170.375 63.027 -176.778
RightUpLeg  -32.8568 -9.78108 -0.0759516
RightLeg  40.6767 -10.0463 -9.38582
RightFoot  -2.8178 -0.0902052 0.966356
RightToes  0.000482159 0.542163 -0.142577
Spine  56.4119 -5.02737 14.4597
Spine1  10.0582 7.19157 -12.5191
HEad  -16.1204 -5.09199 -7.11768
LeftShoulder1  10.6981 -16.661 -46.2719
LeftArm  -4.22307 12.0832 -22.2951
LeftForeArm  31.8158 -44.2938 -8.73128
LeftHand  -0.25398 0.0180481 5.50724
RightShoulder  5.06545 11.5971 27.5137
RightArm  -14.2679 38.4294 25.4967
RightForeArm  -3.10766 6.51929 7.8098
RightHand  -8.15332 19.9787 -36.4794
LeftUpLeg  -29.2201 13.4619 -8.84267
LeftLeg  10.6341 11.967 -3.74905
LeftFoot  7.67386 -2.82627 16.4714
LeftToes  1.06246e-005 4.65854e-005 -8.18502e-006
1288
root  37.0237 38.4901 12.3699 -171.066 64.9333 -175.194
RightUpLeg  -29.274 -11.4694 1.79794
RightLeg  46.3071 -10.2039 -11.5162
RightFoot  -4.74805 -0.0626357 0.554049
RightToes  0.000482159 0.542163 -0.142577
Spine  54.2928 -4.56186 14.1281
Spine1  10.2124 6.95713 -12.4996
HEad  -14.4061 -1.58301 -8.44026
LeftShoulder1  10.6318 -16.4814 -46.403
LeftArm  -4.86671 12.7189 -21.8837
LeftForeArm  30.4647 -42.4066 -8.19395
LeftHand  -0.25398 0.0180481 5.50724
RightShoulder  5.3513 11.6871 29.2416
RightArm  -12.4415 34.7166 26.4647
RightForeArm  -5.01934 8.49415 8.13643
RightHand  -7.91174 19.5439 -36.0547
LeftUpLeg  -26.2938 11.8705 -6.80254
LeftLeg  8.74919 15.7887 -4.62226
LeftFoot  8.14491 -3.05689 17.371
LeftToes  1.06246e-005 4.65854e-005 -8.18502e-006
1289
root  36.4955 38.4524 12.0796 -171.908 66.8088 -174.137
RightUpLeg  -25.1475 -12.7228 3.0757
RightLeg  50.1764 -8.55502 -11.1676
RightFoot  -6.70815 -0.105434 1.51379
RightToes  0.000482159 0.542163 -0.142577
Spine  52.0297 -4.05193 13.5286
Spine1  10.2383 6.7515 -12.5913
HEad  -12.739 1.85679 -9.41087
LeftShoulder1  10.5579 -16.2961 -46.516
LeftArm  -4.75001 13.6724 -21.4728
LeftForeArm  29.0937 -40.2237 -7.60195
LeftHand  -0.25398 0.0180481 5.50724
RightShoulder  5.59 11.7539 30.6774
RightArm  -9.36483 30.9582 27.3672
RightForeArm  -7.34096 10.9607 8.26345
RightHand  -7.71027 19.1806 -35.6889
LeftUpLeg  -24.1711 10.7957 -5.58841
LeftLeg  7.53307 18.9805 -5.26615
LeftFoot  8.38717 -3.18186 17.8497
LeftToes  1.06246e-005 4.65854e-005 -8.18502e-006
1290
root  35.9626 38.3497 11.8389 -172.975 68.516 -173.347
RightUpLeg  -20.296 -13.6992 3.95468
RightLeg  52.3692 -6.1496 -8.86959
RightFoot  -8.1739 -0.152788 3.49049
RightToes  0.000482159 0.542163 -0.142577
Spine  49.8326 -3.4893 12.738
Spine1  10.0036 6.53797 -12.5448
HEad  -10.842 5.02819 -9.82483
LeftShoulder1  10.5157 -16.1423 -46.6982
LeftArm  -3.84861 14.9521 -21.0686
LeftForeArm  27.7427 -37.7726 -6.9726
LeftHand  -0.25398 0.0180481 5.50724
RightShoulder  5.72097 11.6521 31.7982
RightArm  -5.51074 27.3538 28.3199
RightForeArm  -8.88395 13.4039 8.00723
RightHand  -7.48629 18.7929 -35.2468
LeftUpLeg  -22.6144 10.8041 -5.10568
LeftLeg  7.13751 20.9704 -5.56462
LeftFoot  8.47851 -3.29209 18.3782
LeftToes  1.06246e-005 4.65854e-005 -8.18502e-006
